HIERARCHY
ROOT SpineBase
{
  OFFSET 0.000000 0.000000 0.000000
  CHANNELS 6 Xposition Yposition Zposition Zrotation Xrotation Yrotation
  JOINT SpineMid
  {
    OFFSET 0.000000 31.802593 -0.000000
    CHANNELS 3 Zrotation Xrotation Yrotation
    JOINT SpineShoulder
    {
      OFFSET -0.027436 23.612521 -0.699574
      CHANNELS 3 Zrotation Xrotation Yrotation
      JOINT Neck
      {
        OFFSET -0.006575 7.800965 -0.480093
        CHANNELS 3 Zrotation Xrotation Yrotation
        JOINT Head
        {
          OFFSET -4.101861 12.463095 1.073911
          CHANNELS 3 Zrotation Xrotation Yrotation
          End Site
          {
            OFFSET 0 0 0
          }
        }
      }
      JOINT ShoulderLeft
      {
        OFFSET -16.686994 -4.644103 7.595001
        CHANNELS 3 Zrotation Xrotation Yrotation
        JOINT ElbowLeft
        {
          OFFSET -4.988012 -27.736740 3.306685
          CHANNELS 3 Zrotation Xrotation Yrotation
          JOINT WristLeft
          {
            OFFSET 0.126653 -22.229996 -3.425362
            CHANNELS 3 Zrotation Xrotation Yrotation
            JOINT HandLeft
            {
              OFFSET 0.652163 -7.973358 -0.128191
              CHANNELS 3 Zrotation Xrotation Yrotation
              JOINT HandTipLeft
              {
                OFFSET 0.322901 -7.873404 -0.053035
                CHANNELS 3 Zrotation Xrotation Yrotation
                End Site
                {
                  OFFSET 0 0 0
                }
              }
              JOINT ThumbLeft
              {
                OFFSET -1.908157 -1.720594 -1.753709
                CHANNELS 3 Zrotation Xrotation Yrotation
                End Site
                {
                  OFFSET 0 0 0
                }
              }
            }
          }
        }
      }
      JOINT ShoulderRight
      {
        OFFSET 12.672796 -4.440598 -8.741234
        CHANNELS 3 Zrotation Xrotation Yrotation
        JOINT ElbowRight
        {
          OFFSET 7.250198 -27.645043 -3.849874
          CHANNELS 3 Zrotation Xrotation Yrotation
          JOINT WristRight
          {
            OFFSET 0.256989 -22.150498 -5.003064
            CHANNELS 3 Zrotation Xrotation Yrotation
            JOINT HandRight
            {
              OFFSET -0.310220 -8.079274 -0.029575
              CHANNELS 3 Zrotation Xrotation Yrotation
              JOINT HandTipRight
              {
                OFFSET 0.055754 -6.084025 -0.638265
                CHANNELS 3 Zrotation Xrotation Yrotation
                End Site
                {
                  OFFSET 0 0 0
                }
              }
              JOINT ThumbRight
              {
                OFFSET 3.158152 -0.510004 -1.064143
                CHANNELS 3 Zrotation Xrotation Yrotation
                End Site
                {
                  OFFSET 0 0 0
                }
              }
            }
          }
        }
      }
    }
  }
  JOINT HipLeft
  {
    OFFSET -5.870573 0.018475 -0.362474
    CHANNELS 3 Zrotation Xrotation Yrotation
    JOINT KneeLeft
    {
      OFFSET 4.101035 -37.428579 7.589758
      CHANNELS 3 Zrotation Xrotation Yrotation
      JOINT AnkleLeft
      {
        OFFSET 8.086686 -35.800336 10.905273
        CHANNELS 3 Zrotation Xrotation Yrotation
        JOINT FootLeft
        {
          OFFSET -0.938765 -8.315368 -4.587881
          CHANNELS 3 Zrotation Xrotation Yrotation
          End Site
          {
            OFFSET 0 0 0
          }
        }
      }
    }
  }
  JOINT HipRight
  {
    OFFSET 6.361843 1.195796 -6.050159
    CHANNELS 3 Zrotation Xrotation Yrotation
    JOINT KneeRight
    {
      OFFSET 8.465819 -35.114024 1.075548
      CHANNELS 3 Zrotation Xrotation Yrotation
      JOINT AnkleRight
      {
        OFFSET 6.246048 -39.121312 11.422234
        CHANNELS 3 Zrotation Xrotation Yrotation
        JOINT FootRight
        {
          OFFSET -0.867574 -8.229260 -4.078536
          CHANNELS 3 Zrotation Xrotation Yrotation
          End Site
          {
            OFFSET 0 0 0
          }
        }
      }
    }
  }
}
MOTION
Frames: 10
Frame Time: 0.033333
-27.641396 87.555175 346.029054 -0.898735 -0.106061 30.929611 0.825455 -0.370952 -30.927771 -0.000000 0.000000 0.000000 -7.765875 1.070533 1.119266 0.000000 0.000000 0.000000 -18.918709 59.463604 -3.265019 -8.118415 32.733547 23.635112 33.373866 46.794869 55.826502 -11.833287 16.306235 -54.744931 0.000000 0.000000 0.000000 0.000000 0.000000 0.000000 -42.528235 32.797114 29.352048 -58.233124 31.299919 14.204909 -44.403664 36.986998 -47.380219 32.265400 19.701625 69.653983 0.000000 0.000000 0.000000 0.000000 0.000000 0.000000 -1.492837 7.616583 -31.404426 10.861974 -4.789853 2.928705 -4.934624 -4.483348 -1.098201 0.000000 0.000000 0.000000 -0.495069 5.846104 -29.862929 7.283406 -4.774465 0.302007 -26.234082 -15.835595 9.619803 0.000000 0.000000 0.000000
-28.326909 88.515991 345.771350 -1.632870 0.593723 30.744570 0.044507 -0.988558 -30.777235 1.089142 0.233780 0.030320 -8.890216 1.762247 1.521451 0.000000 0.000000 0.000000 -21.713165 58.334826 -1.916995 -9.360061 35.383613 25.692238 62.510563 57.333155 85.847690 3.710902 31.119857 -100.826874 0.000000 0.000000 0.000000 0.000000 0.000000 0.000000 -45.572043 34.327140 32.199007 -66.753334 32.768113 16.434464 -41.409072 31.415154 -87.576232 6.489661 33.266494 113.837990 0.000000 0.000000 0.000000 0.000000 0.000000 0.000000 -1.152779 7.433651 -31.214210 11.959234 -5.775722 3.280321 -2.928273 -12.358434 -1.694549 0.000000 0.000000 0.000000 0.031013 5.204701 -29.579046 7.812593 -5.687234 0.401145 -29.126787 -13.511781 10.794643 0.000000 0.000000 0.000000
-28.972360 89.040416 345.380402 -2.184645 1.337280 30.483612 -0.137573 -1.183650 -30.524860 0.609694 -0.163978 -0.017302 -8.833525 2.045752 1.847903 0.000000 0.000000 0.000000 -22.053221 55.050894 -1.304102 -11.388780 41.003028 28.412942 82.583178 60.840676 105.424132 21.715402 31.885957 -129.469490 0.000000 0.000000 0.000000 0.000000 0.000000 0.000000 -46.196529 35.242842 33.972896 -72.831315 32.979325 16.813601 -37.463389 25.233080 -104.255842 -9.801860 24.933538 139.004976 0.000000 0.000000 0.000000 0.000000 0.000000 0.000000 -1.110111 7.207388 -30.956925 13.154888 -6.733719 3.659860 -8.671310 -11.089409 0.458648 0.000000 0.000000 0.000000 0.210208 4.628482 -29.222302 8.439369 -6.501732 0.518022 -28.458287 -11.196925 10.575186 0.000000 0.000000 0.000000
-29.378705 89.149867 344.740474 -2.288271 2.205485 30.716931 -0.515431 -1.115555 -30.762790 0.634899 -0.480004 -0.031627 -9.585286 1.814983 2.014792 0.000000 0.000000 0.000000 -22.528508 49.215560 -1.291442 -13.380575 51.064556 33.577918 74.957226 58.142791 113.837633 19.623590 26.704097 -113.162347 0.000000 0.000000 0.000000 0.000000 0.000000 0.000000 -46.540933 35.709056 34.795702 -78.520018 32.937186 16.958995 -37.792233 21.283800 -129.428171 -22.126434 9.025437 -175.285150 0.000000 0.000000 0.000000 0.000000 0.000000 0.000000 -1.744716 7.166744 -31.261280 14.727131 -7.825392 4.118987 -8.686810 -5.270143 -0.453244 0.000000 0.000000 0.000000 -0.520887 4.166730 -29.438261 9.580394 -7.179388 0.726307 -26.462759 -11.423355 9.604204 0.000000 0.000000 0.000000
-29.705782 88.801307 344.010818 -2.268492 3.005783 30.505362 -0.756206 -0.907554 -30.550674 0.563170 -0.785557 -0.049126 -10.622875 1.335230 2.110003 0.000000 0.000000 0.000000 -23.542991 50.427132 -0.930798 -11.651596 46.494559 32.156581 86.843295 60.461872 112.653746 28.721482 20.721743 -129.750635 0.000000 0.000000 0.000000 0.000000 0.000000 0.000000 -46.154678 35.710368 34.770117 -82.879985 32.749949 17.186291 -41.639578 17.299924 -159.946392 -21.675800 -6.647708 -143.801835 0.000000 0.000000 0.000000 0.000000 0.000000 0.000000 -2.505585 7.179608 -31.127946 16.165966 -9.076559 4.508817 -9.657891 -0.670024 -0.550526 0.000000 0.000000 0.000000 -1.418521 3.854370 -29.226552 10.640525 -7.875869 0.884525 -27.037220 -14.949122 9.702028 0.000000 0.000000 0.000000
-30.048296 88.038876 343.291100 -2.201176 3.746795 30.803759 -0.779183 -0.604312 -30.837894 0.491950 -0.964583 -0.058574 -13.271279 -0.181061 1.853667 0.000000 0.000000 0.000000 -23.629784 50.108153 -1.178843 -10.954317 45.199951 31.854906 91.021265 60.148943 111.522171 27.653507 15.605402 -110.037392 0.000000 0.000000 0.000000 0.000000 0.000000 0.000000 -43.498663 34.844552 32.581257 -85.351049 32.203837 18.010898 -51.318011 13.110296 170.074257 -22.159522 -20.373031 -125.468744 0.000000 0.000000 0.000000 0.000000 0.000000 0.000000 -2.991795 7.138185 -31.472253 17.175257 -10.471346 4.754981 -8.331004 3.900525 -1.803202 0.000000 0.000000 0.000000 -2.265073 3.561045 -29.550143 11.562660 -8.526878 1.015418 -25.403381 -16.744213 9.057612 0.000000 0.000000 0.000000
-30.320933 87.224802 342.572477 -2.087205 4.087355 30.966986 -0.730886 -0.222369 -30.995485 0.283264 -1.066412 -0.080580 -14.860717 -0.773282 1.844708 0.000000 0.000000 0.000000 -23.470783 49.785819 -1.392628 -8.967234 43.047186 30.700893 94.015635 60.325140 106.596323 23.603635 12.667778 -84.278993 0.000000 0.000000 0.000000 0.000000 0.000000 0.000000 -42.975172 33.701177 31.597953 -85.532345 32.396200 20.145720 -49.201801 12.201460 176.546446 -10.658424 -15.423962 157.051827 0.000000 0.000000 0.000000 0.000000 0.000000 0.000000 -3.333224 7.143857 -31.673546 17.834821 -11.708294 4.845080 1.409023 4.142252 -7.842697 0.000000 0.000000 0.000000 -2.912815 3.520663 -29.752788 12.246218 -8.959058 1.104941 -23.263948 -24.037573 8.193892 0.000000 0.000000 0.000000
-30.507044 86.850093 341.818883 -2.023260 4.177732 33.698568 -0.790656 -0.062336 -33.730753 0.088323 -1.069739 -0.102361 -14.768415 0.511993 2.559449 0.000000 0.000000 0.000000 -23.917100 49.001941 -1.250989 -7.883477 42.946632 30.801865 96.229770 59.496433 104.902381 23.004004 16.450562 -91.626459 0.000000 0.000000 0.000000 0.000000 0.000000 0.000000 -47.017736 34.312719 34.612888 -82.987466 33.176714 18.423306 -44.244155 13.364117 -175.066353 -8.478649 -12.523883 121.569924 0.000000 0.000000 0.000000 0.000000 0.000000 0.000000 -3.238486 7.741015 -34.461320 18.685504 -12.632303 5.085986 4.937385 6.369581 -10.656127 0.000000 0.000000 0.000000 -3.538442 3.069603 -32.727373 12.688685 -8.349436 1.222594 -20.374447 -36.405351 7.407024 0.000000 0.000000 0.000000
-30.621702 86.620815 341.192223 -2.044819 3.923577 37.249262 -0.804999 0.038109 -37.286108 -0.064106 -0.975756 -0.118107 -13.726939 3.014834 3.722134 0.000000 0.000000 0.000000 -24.912542 48.626163 -0.795802 -6.573723 42.693704 31.056230 86.001931 61.641650 98.543731 13.370437 16.112689 -70.626934 0.000000 0.000000 0.000000 0.000000 0.000000 0.000000 -55.275853 35.522764 41.127241 -74.633894 35.245162 15.203964 -43.112559 15.862765 -177.951973 -16.837592 -6.794182 164.518576 0.000000 0.000000 0.000000 0.000000 0.000000 0.000000 -2.662038 8.648648 -38.057849 19.294706 -13.503888 5.246728 4.564401 11.452254 -11.246479 0.000000 0.000000 0.000000 -3.810552 2.726024 -36.532687 12.853170 -7.524795 1.312931 -17.950971 -48.785168 7.481127 0.000000 0.000000 0.000000
-30.789420 86.665319 340.801909 -2.241455 3.341109 40.808155 -0.795124 -0.093512 -40.850021 -0.190682 -0.867437 -0.129428 -12.007589 6.909498 5.291308 0.000000 0.000000 0.000000 -25.769682 48.405371 -0.178726 -5.307133 42.839529 31.176952 67.735263 63.613161 88.606576 4.084108 10.649801 -41.906952 0.000000 0.000000 0.000000 0.000000 0.000000 0.000000 -67.422833 37.314210 52.241845 -62.352337 36.979029 7.667323 -32.864523 19.464801 -147.263201 -9.261405 5.636746 122.807834 0.000000 0.000000 0.000000 0.000000 0.000000 0.000000 -1.502811 9.228877 -41.621384 19.083907 -13.840982 5.132712 0.997930 18.298956 -9.482969 0.000000 0.000000 0.000000 -3.546371 2.290080 -40.330021 12.571617 -6.477399 1.373306 -20.034494 -44.720667 7.604611 0.000000 0.000000 0.000000
